<svg width="118" height="90" viewBox="0 0 118 90" fill="none" xmlns="http://www.w3.org/2000/svg">
<g clip-path="url(#clip0_1260_47)">
<circle cx="25.6723" cy="41.1898" r="1.90517" fill="white"/>
<path d="M27.9667 43.449C27.1613 44.1696 27.1335 45.4212 27.9061 46.1769L29.0048 47.2514C29.6625 47.8948 29.6684 48.9514 29.0178 49.602L17.5052 61.1145C16.7898 61.8299 16.7898 62.9898 17.5052 63.7052V63.7052C18.2206 64.4206 19.3805 64.4206 20.0959 63.7052L32.2885 51.5127C34.0454 49.7557 34.0228 46.9002 32.2382 45.1714L30.5124 43.4995C29.8084 42.8175 28.6972 42.7955 27.9667 43.449V43.449Z" fill="white"/>
<path d="M24.3963 49.8711C25.1403 49.1271 25.1403 47.9208 24.3963 47.1768L21.1147 43.8952C19.8365 42.617 19.8365 40.5447 21.1147 39.2665L31.4948 28.8865C32.2102 28.1711 32.2102 27.0112 31.4948 26.2958V26.2958C30.7794 25.5804 29.6195 25.5804 28.9041 26.2958L18.2822 36.9176C15.6496 39.5503 15.6496 43.8187 18.2822 46.4514L21.7019 49.8711C22.446 50.6151 23.6522 50.6151 24.3963 49.8711V49.8711Z" fill="white"/>
<path d="M55.6038 52.312C54.6598 52.312 53.7558 52.164 52.8918 51.868C52.0358 51.572 51.2838 51.144 50.6358 50.584C49.9958 50.024 49.5358 49.36 49.2558 48.592L52.3638 47.44C52.4598 47.712 52.6598 47.968 52.9638 48.208C53.2678 48.44 53.6478 48.632 54.1038 48.784C54.5598 48.928 55.0598 49 55.6038 49C56.1238 49 56.6118 48.924 57.0678 48.772C57.5318 48.612 57.9038 48.392 58.1838 48.112C58.4718 47.832 58.6158 47.504 58.6158 47.128C58.6158 46.752 58.4678 46.44 58.1718 46.192C57.8758 45.944 57.4958 45.748 57.0318 45.604C56.5678 45.452 56.0918 45.336 55.6038 45.256C54.3958 45.08 53.3118 44.796 52.3518 44.404C51.3998 44.004 50.6478 43.456 50.0958 42.76C49.5438 42.056 49.2678 41.164 49.2678 40.084C49.2678 39.044 49.5598 38.136 50.1438 37.36C50.7358 36.584 51.5118 35.98 52.4718 35.548C53.4398 35.116 54.4838 34.9 55.6038 34.9C56.5318 34.9 57.4278 35.048 58.2918 35.344C59.1558 35.64 59.9078 36.068 60.5478 36.628C61.1958 37.188 61.6598 37.86 61.9398 38.644L58.8318 39.772C58.7358 39.5 58.5358 39.248 58.2318 39.016C57.9278 38.784 57.5478 38.596 57.0918 38.452C56.6358 38.308 56.1398 38.236 55.6038 38.236C55.0918 38.228 54.6038 38.304 54.1398 38.464C53.6838 38.624 53.3078 38.844 53.0118 39.124C52.7238 39.404 52.5798 39.724 52.5798 40.084C52.5798 40.556 52.7158 40.912 52.9878 41.152C53.2678 41.392 53.6358 41.564 54.0918 41.668C54.5478 41.772 55.0518 41.864 55.6038 41.944C56.7398 42.112 57.7878 42.412 58.7478 42.844C59.7078 43.268 60.4758 43.836 61.0518 44.548C61.6358 45.252 61.9278 46.112 61.9278 47.128C61.9278 48.168 61.6358 49.076 61.0518 49.852C60.4678 50.628 59.6958 51.232 58.7358 51.664C57.7758 52.096 56.7318 52.312 55.6038 52.312ZM64.2614 40H67.5734V52H64.2614V40ZM65.9414 38.62C65.4614 38.62 65.0574 38.46 64.7294 38.14C64.4014 37.82 64.2374 37.424 64.2374 36.952C64.2374 36.48 64.4014 36.084 64.7294 35.764C65.0574 35.444 65.4574 35.284 65.9294 35.284C66.4014 35.284 66.7974 35.444 67.1174 35.764C67.4454 36.084 67.6094 36.48 67.6094 36.952C67.6094 37.424 67.4494 37.82 67.1294 38.14C66.8174 38.46 66.4214 38.62 65.9414 38.62ZM73.0169 52.312C72.3769 52.312 71.7489 52.204 71.1329 51.988C70.5249 51.772 69.9769 51.452 69.4889 51.028L71.6129 48.484C71.7649 48.604 71.9569 48.72 72.1889 48.832C72.4209 48.944 72.6969 49 73.0169 49C73.4249 49 73.7929 48.9 74.1209 48.7C74.4569 48.492 74.7249 48.22 74.9249 47.884C75.1249 47.54 75.2249 47.168 75.2249 46.768V35.2H78.5369V46.768C78.5369 47.784 78.2889 48.712 77.7929 49.552C77.2969 50.384 76.6289 51.052 75.7889 51.556C74.9569 52.06 74.0329 52.312 73.0169 52.312ZM86.6977 52.312C85.5937 52.312 84.5857 52.028 83.6737 51.46C82.7697 50.892 82.0457 50.132 81.5017 49.18C80.9657 48.22 80.6977 47.16 80.6977 46C80.6977 45.12 80.8537 44.3 81.1657 43.54C81.4777 42.772 81.9057 42.1 82.4497 41.524C83.0017 40.94 83.6417 40.484 84.3697 40.156C85.0977 39.828 85.8737 39.664 86.6977 39.664C87.8017 39.664 88.8057 39.948 89.7097 40.516C90.6217 41.084 91.3457 41.848 91.8817 42.808C92.4257 43.768 92.6977 44.832 92.6977 46C92.6977 46.872 92.5417 47.688 92.2297 48.448C91.9177 49.208 91.4857 49.88 90.9337 50.464C90.3897 51.04 89.7537 51.492 89.0257 51.82C88.3057 52.148 87.5297 52.312 86.6977 52.312ZM86.6977 49C87.2097 49 87.6697 48.864 88.0777 48.592C88.4857 48.312 88.8057 47.944 89.0377 47.488C89.2697 47.032 89.3857 46.536 89.3857 46C89.3857 45.448 89.2617 44.944 89.0137 44.488C88.7737 44.024 88.4497 43.656 88.0417 43.384C87.6337 43.112 87.1857 42.976 86.6977 42.976C86.1937 42.976 85.7377 43.116 85.3297 43.396C84.9217 43.676 84.5977 44.044 84.3577 44.5C84.1257 44.956 84.0097 45.456 84.0097 46C84.0097 46.568 84.1297 47.08 84.3697 47.536C84.6177 47.984 84.9457 48.34 85.3537 48.604C85.7617 48.868 86.2097 49 86.6977 49ZM100.836 39.664C102.004 39.664 103.064 39.948 104.016 40.516C104.976 41.084 105.74 41.848 106.308 42.808C106.876 43.76 107.16 44.816 107.16 45.976C107.16 46.848 106.996 47.668 106.668 48.436C106.34 49.204 105.884 49.88 105.3 50.464C104.724 51.04 104.052 51.492 103.284 51.82C102.524 52.148 101.708 52.312 100.836 52.312C100.148 52.312 99.5363 52.16 99.0003 51.856C98.4643 51.552 98.0043 51.168 97.6203 50.704V52H94.3083V34H97.6203V41.272C98.0043 40.8 98.4643 40.416 99.0003 40.12C99.5363 39.816 100.148 39.664 100.836 39.664ZM100.788 49.108C101.34 49.108 101.84 48.968 102.288 48.688C102.744 48.408 103.104 48.032 103.368 47.56C103.632 47.08 103.764 46.552 103.764 45.976C103.764 45.4 103.628 44.876 103.356 44.404C103.092 43.932 102.732 43.556 102.276 43.276C101.828 42.988 101.332 42.844 100.788 42.844C100.244 42.844 99.7523 42.988 99.3123 43.276C98.8803 43.556 98.5363 43.936 98.2803 44.416C98.0323 44.888 97.9083 45.408 97.9083 45.976C97.9083 46.56 98.0323 47.088 98.2803 47.56C98.5363 48.032 98.8803 48.408 99.3123 48.688C99.7523 48.968 100.244 49.108 100.788 49.108ZM112.589 52.216C111.973 52.168 111.381 52.04 110.813 51.832C110.245 51.616 109.737 51.328 109.289 50.968C108.849 50.6 108.505 50.16 108.257 49.648L111.041 48.448C111.129 48.576 111.261 48.716 111.437 48.868C111.613 49.012 111.825 49.14 112.073 49.252C112.329 49.364 112.625 49.42 112.961 49.42C113.209 49.42 113.449 49.392 113.681 49.336C113.913 49.272 114.101 49.172 114.245 49.036C114.389 48.892 114.461 48.704 114.461 48.472C114.461 48.216 114.369 48.02 114.185 47.884C114.001 47.748 113.777 47.648 113.513 47.584C113.257 47.512 113.009 47.452 112.769 47.404C112.033 47.276 111.337 47.048 110.681 46.72C110.033 46.384 109.505 45.952 109.097 45.424C108.689 44.896 108.485 44.264 108.485 43.528C108.485 42.72 108.697 42.024 109.121 41.44C109.545 40.848 110.097 40.392 110.777 40.072C111.457 39.752 112.193 39.592 112.985 39.592C113.921 39.592 114.789 39.788 115.589 40.18C116.389 40.572 117.033 41.124 117.521 41.836L114.905 43.384C114.801 43.232 114.665 43.088 114.497 42.952C114.337 42.808 114.149 42.688 113.933 42.592C113.725 42.488 113.501 42.428 113.261 42.412C112.949 42.388 112.665 42.408 112.409 42.472C112.153 42.528 111.949 42.636 111.797 42.796C111.653 42.956 111.581 43.172 111.581 43.444C111.581 43.708 111.697 43.904 111.929 44.032C112.161 44.152 112.429 44.244 112.733 44.308C113.037 44.364 113.305 44.432 113.537 44.512C114.233 44.736 114.885 45.024 115.493 45.376C116.109 45.72 116.605 46.144 116.981 46.648C117.357 47.152 117.533 47.744 117.509 48.424C117.509 49.216 117.273 49.912 116.801 50.512C116.329 51.104 115.717 51.556 114.965 51.868C114.221 52.172 113.429 52.288 112.589 52.216Z" fill="white"/>
</g>
<defs>
<clipPath id="clip0_1260_47">
<rect width="118" height="90" fill="white"/>
</clipPath>
</defs>
</svg>
